# xmcd
#
# Track frame offsets: 
#        150
#        20831
#        41547
#        68576
#        95085
#        111393
#        132345
#        154231
#        184129
#        199160
#        219314
#        247923
#        269741
#
# Disc length: 3788 seconds
#
# Revision: 3
# Processed by: cddbd v1.5.2PL0 Copyright (c) Steve Scherf et al.
# Submitted via: ExactAudioCopy v0.99pb4
#
DISCID=c30eca0d
DTITLE=Mats Klingström - Sånger av Leonard Cohen - Jag är din man
DYEAR=2000
DGENRE=Tribute|Folk
TTITLE0=Som en fågel du hör
TTITLE1=Jag är din man
TTITLE2=Farväl Marianne
TTITLE3=Susanne
TTITLE4=Hjärta utan vänner
TTITLE5=Vinterkvinna
TTITLE6=Ett torn av musik
TTITLE7=Berömd blå regnrock
TTITLE8=Inatt ska allting bli bra
TTITLE9=Det känns som längesen, Nancy
TTITLE10=Först tar vi Manhattan
TTITLE11=En av oss kan inte ha fel
TTITLE12=När du försöker ta farväl
EXTD=
EXTT0=
EXTT1=
EXTT2=
EXTT3=
EXTT4=
EXTT5=
EXTT6=
EXTT7=
EXTT8=
EXTT9=
EXTT10=
EXTT11=
EXTT12=
PLAYORDER=
